<svg width="1572" height="1333" viewBox="0 0 1572 1333" fill="none" xmlns="http://www.w3.org/2000/svg">
<path d="M1130.01 501.543L1326.51 388.543L803.507 84.0425L1130.01 501.543Z" fill="url(#paint0_linear_16_470)"/>
<path d="M803.507 1053.04L476.582 501.042L1130.43 501.042L803.507 1053.04Z" fill="url(#paint1_linear_16_470)"/>
<path d="M803.507 84.0425L1130.43 501.792L476.582 501.792L803.507 84.0425Z" fill="url(#paint2_linear_16_470)"/>
<path d="M1130.56 500.918L1328.01 990.042L803.506 1053.04L1130.56 500.918Z" fill="url(#paint3_linear_16_470)"/>
<path d="M1130.56 500.918L1328.01 990.042L803.506 1053.04L1130.56 500.918Z" fill="url(#paint4_linear_16_470)" fill-opacity="0.9"/>
<path d="M1326.01 990.042L803.507 1287.04L803.506 1052.54L1326.01 990.042Z" fill="url(#paint5_linear_16_470)"/>
<path d="M281.36 989.042L803.86 1286.04L803.861 1051.54L281.36 989.042Z" fill="url(#paint6_linear_16_470)"/>
<path d="M476.315 499.956L278.869 989.081L803.37 1052.08L476.315 499.956Z" fill="url(#paint7_linear_16_470)"/>
<path d="M476.506 502.042L280.006 389.042L280.006 988.543L476.506 502.042Z" fill="url(#paint8_linear_16_470)"/>
<path d="M1130.05 501.487L1326.55 388.487L1326.55 987.987L1130.05 501.487Z" fill="url(#paint9_linear_16_470)"/>
<path d="M476.507 502.043L279.488 389.783L803.508 84.0425L476.507 502.043Z" fill="url(#paint10_linear_16_470)"/>
<defs>
<linearGradient id="paint0_linear_16_470" x1="1051.89" y1="65.0213" x2="1085.58" y2="504.945" gradientUnits="userSpaceOnUse">
<stop stop-color="#D9D9D9"/>
<stop offset="1" stop-color="#FA9F8B"/>
</linearGradient>
<linearGradient id="paint1_linear_16_470" x1="803.507" y1="317.042" x2="803.507" y2="1053.04" gradientUnits="userSpaceOnUse">
<stop stop-color="#D9D9D9"/>
<stop offset="1" stop-color="#FA9F8B"/>
</linearGradient>
<linearGradient id="paint2_linear_16_470" x1="803.507" y1="84.0425" x2="803.507" y2="641.042" gradientUnits="userSpaceOnUse">
<stop stop-color="#FA9F8B"/>
<stop offset="1" stop-color="#AA91C4"/>
</linearGradient>
<linearGradient id="paint3_linear_16_470" x1="1031.59" y1="507.495" x2="1066.69" y2="1035.55" gradientUnits="userSpaceOnUse">
<stop stop-color="#F9DB91"/>
<stop offset="1" stop-color="white"/>
</linearGradient>
<linearGradient id="paint4_linear_16_470" x1="1312.32" y1="753.977" x2="785.949" y2="788.846" gradientUnits="userSpaceOnUse">
<stop stop-color="#FADC92"/>
<stop offset="1" stop-color="#5693B5"/>
</linearGradient>
<linearGradient id="paint5_linear_16_470" x1="1056.08" y1="1007.98" x2="1073.43" y2="1269.1" gradientUnits="userSpaceOnUse">
<stop stop-color="#D9D9D9"/>
<stop offset="1" stop-color="#65A83D"/>
</linearGradient>
<linearGradient id="paint6_linear_16_470" x1="551.287" y1="1006.98" x2="533.934" y2="1268.1" gradientUnits="userSpaceOnUse">
<stop stop-color="#5693B5"/>
<stop offset="1" stop-color="#65A83D"/>
</linearGradient>
<linearGradient id="paint7_linear_16_470" x1="818.585" y1="823.13" x2="296.93" y2="717.771" gradientUnits="userSpaceOnUse">
<stop stop-color="#5693B5"/>
<stop offset="1" stop-color="#F9D886"/>
</linearGradient>
<linearGradient id="paint8_linear_16_470" x1="460.279" y1="864.439" x2="180.273" y2="457.701" gradientUnits="userSpaceOnUse">
<stop stop-color="#F9D886"/>
<stop offset="1" stop-color="#FA9F8B"/>
</linearGradient>
<linearGradient id="paint9_linear_16_470" x1="1426.29" y1="457.145" x2="1146.28" y2="863.884" gradientUnits="userSpaceOnUse">
<stop stop-color="#FA9F8B"/>
<stop offset="1" stop-color="#F9D886"/>
</linearGradient>
<linearGradient id="paint10_linear_16_470" x1="553.911" y1="65.9229" x2="522.011" y2="505.346" gradientUnits="userSpaceOnUse">
<stop stop-color="#DDDDDD"/>
<stop offset="1" stop-color="#FA9F8B"/>
</linearGradient>
</defs>
</svg>
